<mxfile host="app.diagrams.net" modified="2022-08-02T10:27:19.053Z" agent="5.0 (Windows NT 10.0; Win64; x64) AppleWebKit/537.36 (KHTML, like Gecko) Chrome/103.0.0.0 Safari/537.36" etag="WlMUEeVmsAxKkfFWl3Aw" version="20.2.2" type="github">
  <diagram id="txThs9l5sOzWy9csWkvt" name="Page-1">
    <mxGraphModel dx="782" dy="2660" grid="1" gridSize="10" guides="1" tooltips="1" connect="1" arrows="1" fold="1" page="1" pageScale="1" pageWidth="850" pageHeight="1100" math="0" shadow="0">
      <root>
        <mxCell id="0" />
        <mxCell id="1" parent="0" />
        <mxCell id="107-IEOnHse_30UmLulo-9" value="UserModel" style="swimlane;fontStyle=0;childLayout=stackLayout;horizontal=1;startSize=26;fillColor=none;horizontalStack=0;resizeParent=1;resizeParentMax=0;resizeLast=0;collapsible=1;marginBottom=0;" parent="1" vertex="1">
          <mxGeometry x="430" y="-910" width="140" height="100" as="geometry" />
        </mxCell>
        <mxCell id="107-IEOnHse_30UmLulo-10" value="name" style="text;strokeColor=none;fillColor=none;align=left;verticalAlign=top;spacingLeft=4;spacingRight=4;overflow=hidden;rotatable=0;points=[[0,0.5],[1,0.5]];portConstraint=eastwest;" parent="107-IEOnHse_30UmLulo-9" vertex="1">
          <mxGeometry y="26" width="140" height="26" as="geometry" />
        </mxCell>
        <mxCell id="107-IEOnHse_30UmLulo-11" value="email&#xa;&#xa;password&#xa;&#xa;&#xa;" style="text;strokeColor=none;fillColor=none;align=left;verticalAlign=top;spacingLeft=4;spacingRight=4;overflow=hidden;rotatable=0;points=[[0,0.5],[1,0.5]];portConstraint=eastwest;" parent="107-IEOnHse_30UmLulo-9" vertex="1">
          <mxGeometry y="52" width="140" height="48" as="geometry" />
        </mxCell>
        <mxCell id="107-IEOnHse_30UmLulo-13" value="RoleModel" style="swimlane;fontStyle=0;childLayout=stackLayout;horizontal=1;startSize=26;fillColor=none;horizontalStack=0;resizeParent=1;resizeParentMax=0;resizeLast=0;collapsible=1;marginBottom=0;" parent="1" vertex="1">
          <mxGeometry x="590" y="-910" width="140" height="74" as="geometry" />
        </mxCell>
        <mxCell id="107-IEOnHse_30UmLulo-15" value="roleType" style="text;strokeColor=none;fillColor=none;align=left;verticalAlign=top;spacingLeft=4;spacingRight=4;overflow=hidden;rotatable=0;points=[[0,0.5],[1,0.5]];portConstraint=eastwest;" parent="107-IEOnHse_30UmLulo-13" vertex="1">
          <mxGeometry y="26" width="140" height="48" as="geometry" />
        </mxCell>
        <mxCell id="107-IEOnHse_30UmLulo-16" value="UserService" style="swimlane;fontStyle=0;childLayout=stackLayout;horizontal=1;startSize=26;fillColor=none;horizontalStack=0;resizeParent=1;resizeParentMax=0;resizeLast=0;collapsible=1;marginBottom=0;" parent="1" vertex="1">
          <mxGeometry x="510" y="-1050" width="140" height="80" as="geometry" />
        </mxCell>
        <mxCell id="107-IEOnHse_30UmLulo-17" value="logIn()&#xa;&#xa;register()" style="text;strokeColor=none;fillColor=none;align=left;verticalAlign=top;spacingLeft=4;spacingRight=4;overflow=hidden;rotatable=0;points=[[0,0.5],[1,0.5]];portConstraint=eastwest;" parent="107-IEOnHse_30UmLulo-16" vertex="1">
          <mxGeometry y="26" width="140" height="54" as="geometry" />
        </mxCell>
        <mxCell id="107-IEOnHse_30UmLulo-19" value="UserController" style="swimlane;fontStyle=0;childLayout=stackLayout;horizontal=1;startSize=26;fillColor=none;horizontalStack=0;resizeParent=1;resizeParentMax=0;resizeLast=0;collapsible=1;marginBottom=0;" parent="1" vertex="1">
          <mxGeometry x="510" y="-1170" width="140" height="80" as="geometry" />
        </mxCell>
        <mxCell id="107-IEOnHse_30UmLulo-20" value="logIn()&#xa;&#xa;register()" style="text;strokeColor=none;fillColor=none;align=left;verticalAlign=top;spacingLeft=4;spacingRight=4;overflow=hidden;rotatable=0;points=[[0,0.5],[1,0.5]];portConstraint=eastwest;" parent="107-IEOnHse_30UmLulo-19" vertex="1">
          <mxGeometry y="26" width="140" height="54" as="geometry" />
        </mxCell>
        <mxCell id="107-IEOnHse_30UmLulo-21" value="RoomEnity" style="swimlane;fontStyle=0;childLayout=stackLayout;horizontal=1;startSize=26;fillColor=none;horizontalStack=0;resizeParent=1;resizeParentMax=0;resizeLast=0;collapsible=1;marginBottom=0;" parent="1" vertex="1">
          <mxGeometry x="410" y="-50" width="130" height="140" as="geometry" />
        </mxCell>
        <mxCell id="107-IEOnHse_30UmLulo-22" value="roomId&#xa;&#xa;name&#xa;&#xa;currectStatus&#xa;&#xa;popularity" style="text;strokeColor=none;fillColor=none;align=left;verticalAlign=top;spacingLeft=4;spacingRight=4;overflow=hidden;rotatable=0;points=[[0,0.5],[1,0.5]];portConstraint=eastwest;" parent="107-IEOnHse_30UmLulo-21" vertex="1">
          <mxGeometry y="26" width="130" height="114" as="geometry" />
        </mxCell>
        <mxCell id="107-IEOnHse_30UmLulo-24" value="MeetingEnity" style="swimlane;fontStyle=0;childLayout=stackLayout;horizontal=1;startSize=26;fillColor=none;horizontalStack=0;resizeParent=1;resizeParentMax=0;resizeLast=0;collapsible=1;marginBottom=0;" parent="1" vertex="1">
          <mxGeometry x="580" y="-80" width="140" height="170" as="geometry" />
        </mxCell>
        <mxCell id="107-IEOnHse_30UmLulo-25" value="meetingtId&#xa;&#xa;name&#xa;&#xa;roomId&#xa;&#xa;time&#xa;&#xa;members" style="text;strokeColor=none;fillColor=none;align=left;verticalAlign=top;spacingLeft=4;spacingRight=4;overflow=hidden;rotatable=0;points=[[0,0.5],[1,0.5]];portConstraint=eastwest;" parent="107-IEOnHse_30UmLulo-24" vertex="1">
          <mxGeometry y="26" width="140" height="144" as="geometry" />
        </mxCell>
        <mxCell id="107-IEOnHse_30UmLulo-26" value="GenericRepository" style="swimlane;fontStyle=0;childLayout=stackLayout;horizontal=1;startSize=26;fillColor=none;horizontalStack=0;resizeParent=1;resizeParentMax=0;resizeLast=0;collapsible=1;marginBottom=0;" parent="1" vertex="1">
          <mxGeometry x="480" y="-270" width="140" height="170" as="geometry" />
        </mxCell>
        <mxCell id="107-IEOnHse_30UmLulo-27" value="add()&#xa;&#xa;update()&#xa;&#xa;delete()&#xa;&#xa;getAll()&#xa;&#xa;saveChanges()" style="text;strokeColor=none;fillColor=none;align=left;verticalAlign=top;spacingLeft=4;spacingRight=4;overflow=hidden;rotatable=0;points=[[0,0.5],[1,0.5]];portConstraint=eastwest;" parent="107-IEOnHse_30UmLulo-26" vertex="1">
          <mxGeometry y="26" width="140" height="144" as="geometry" />
        </mxCell>
        <mxCell id="107-IEOnHse_30UmLulo-28" value="RoomService" style="swimlane;fontStyle=0;childLayout=stackLayout;horizontal=1;startSize=26;fillColor=none;horizontalStack=0;resizeParent=1;resizeParentMax=0;resizeLast=0;collapsible=1;marginBottom=0;" parent="1" vertex="1">
          <mxGeometry x="380" y="-519" width="140" height="140" as="geometry" />
        </mxCell>
        <mxCell id="107-IEOnHse_30UmLulo-29" value="getAllRooms()&#xa;&#xa;addRoom()&#xa;&#xa;updateRoom()&#xa;&#xa;deleteRoom()" style="text;strokeColor=none;fillColor=none;align=left;verticalAlign=top;spacingLeft=4;spacingRight=4;overflow=hidden;rotatable=0;points=[[0,0.5],[1,0.5]];portConstraint=eastwest;" parent="107-IEOnHse_30UmLulo-28" vertex="1">
          <mxGeometry y="26" width="140" height="114" as="geometry" />
        </mxCell>
        <mxCell id="107-IEOnHse_30UmLulo-30" value="MeetingService" style="swimlane;fontStyle=0;childLayout=stackLayout;horizontal=1;startSize=26;fillColor=none;horizontalStack=0;resizeParent=1;resizeParentMax=0;resizeLast=0;collapsible=1;marginBottom=0;" parent="1" vertex="1">
          <mxGeometry x="685" y="-509" width="210" height="140" as="geometry" />
        </mxCell>
        <mxCell id="107-IEOnHse_30UmLulo-31" value="getAllMeetings()&#xa;&#xa;addMeeting()&#xa;&#xa;updateMeeting()&#xa;&#xa;deletemeetin()" style="text;strokeColor=none;fillColor=none;align=left;verticalAlign=top;spacingLeft=4;spacingRight=4;overflow=hidden;rotatable=0;points=[[0,0.5],[1,0.5]];portConstraint=eastwest;" parent="107-IEOnHse_30UmLulo-30" vertex="1">
          <mxGeometry y="26" width="210" height="114" as="geometry" />
        </mxCell>
        <mxCell id="107-IEOnHse_30UmLulo-32" value="RoomController" style="swimlane;fontStyle=0;childLayout=stackLayout;horizontal=1;startSize=26;fillColor=none;horizontalStack=0;resizeParent=1;resizeParentMax=0;resizeLast=0;collapsible=1;marginBottom=0;" parent="1" vertex="1">
          <mxGeometry x="380" y="-679" width="140" height="140" as="geometry" />
        </mxCell>
        <mxCell id="107-IEOnHse_30UmLulo-33" value="getAllRooms()&#xa;&#xa;addRoom()&#xa;&#xa;updateRoom()&#xa;&#xa;detelteRoom()" style="text;strokeColor=none;fillColor=none;align=left;verticalAlign=top;spacingLeft=4;spacingRight=4;overflow=hidden;rotatable=0;points=[[0,0.5],[1,0.5]];portConstraint=eastwest;" parent="107-IEOnHse_30UmLulo-32" vertex="1">
          <mxGeometry y="26" width="140" height="114" as="geometry" />
        </mxCell>
        <mxCell id="107-IEOnHse_30UmLulo-34" value="MeetingController" style="swimlane;fontStyle=0;childLayout=stackLayout;horizontal=1;startSize=26;fillColor=none;horizontalStack=0;resizeParent=1;resizeParentMax=0;resizeLast=0;collapsible=1;marginBottom=0;" parent="1" vertex="1">
          <mxGeometry x="685" y="-679" width="210" height="140" as="geometry" />
        </mxCell>
        <mxCell id="107-IEOnHse_30UmLulo-35" value="getByDate()&#xa;&#xa;addApp()&#xa;&#xa;updateApp()&#xa;&#xa;deleteApp()" style="text;strokeColor=none;fillColor=none;align=left;verticalAlign=top;spacingLeft=4;spacingRight=4;overflow=hidden;rotatable=0;points=[[0,0.5],[1,0.5]];portConstraint=eastwest;" parent="107-IEOnHse_30UmLulo-34" vertex="1">
          <mxGeometry y="26" width="210" height="114" as="geometry" />
        </mxCell>
        <mxCell id="107-IEOnHse_30UmLulo-37" value="RepositoryModule" style="swimlane;fontStyle=0;childLayout=stackLayout;horizontal=1;startSize=26;fillColor=#dae8fc;horizontalStack=0;resizeParent=1;resizeParentMax=0;resizeLast=0;collapsible=1;marginBottom=0;strokeColor=#6c8ebf;" parent="1" vertex="1">
          <mxGeometry x="390" y="-320" width="350" height="442" as="geometry" />
        </mxCell>
        <mxCell id="107-IEOnHse_30UmLulo-44" value="RoomModule" style="swimlane;fontStyle=0;childLayout=stackLayout;horizontal=1;startSize=26;fillColor=#ffe6cc;horizontalStack=0;resizeParent=1;resizeParentMax=0;resizeLast=0;collapsible=1;marginBottom=0;strokeColor=#d79b00;" parent="1" vertex="1">
          <mxGeometry x="360" y="-739" width="180" height="378" as="geometry" />
        </mxCell>
        <mxCell id="107-IEOnHse_30UmLulo-48" value="MeetingModule" style="swimlane;fontStyle=0;childLayout=stackLayout;horizontal=1;startSize=26;fillColor=#e1d5e7;horizontalStack=0;resizeParent=1;resizeParentMax=0;resizeLast=0;collapsible=1;marginBottom=0;strokeColor=#9673a6;" parent="1" vertex="1">
          <mxGeometry x="660" y="-739" width="260" height="390" as="geometry" />
        </mxCell>
        <mxCell id="107-IEOnHse_30UmLulo-52" value="UserModule" style="swimlane;fontStyle=0;childLayout=stackLayout;horizontal=1;startSize=26;fillColor=#fff2cc;horizontalStack=0;resizeParent=1;resizeParentMax=0;resizeLast=0;collapsible=1;marginBottom=0;strokeColor=#d6b656;" parent="1" vertex="1">
          <mxGeometry x="410" y="-1210" width="340" height="430" as="geometry" />
        </mxCell>
        <mxCell id="107-IEOnHse_30UmLulo-64" value="" style="endArrow=classic;html=1;exitX=0.5;exitY=1;exitDx=0;exitDy=0;entryX=0.25;entryY=0;entryDx=0;entryDy=0;" parent="1" source="107-IEOnHse_30UmLulo-44" target="107-IEOnHse_30UmLulo-37" edge="1">
          <mxGeometry width="50" height="50" relative="1" as="geometry">
            <mxPoint x="710" y="-160" as="sourcePoint" />
            <mxPoint x="760" y="-210" as="targetPoint" />
          </mxGeometry>
        </mxCell>
        <mxCell id="107-IEOnHse_30UmLulo-65" value="" style="endArrow=classic;html=1;exitX=0.5;exitY=1;exitDx=0;exitDy=0;entryX=0.722;entryY=-0.004;entryDx=0;entryDy=0;entryPerimeter=0;" parent="1" source="107-IEOnHse_30UmLulo-48" target="107-IEOnHse_30UmLulo-37" edge="1">
          <mxGeometry width="50" height="50" relative="1" as="geometry">
            <mxPoint x="440" y="-351" as="sourcePoint" />
            <mxPoint x="487.5" y="-310" as="targetPoint" />
          </mxGeometry>
        </mxCell>
        <mxCell id="107-IEOnHse_30UmLulo-66" value="" style="endArrow=classic;html=1;exitX=0.25;exitY=1;exitDx=0;exitDy=0;entryX=0.5;entryY=0;entryDx=0;entryDy=0;" parent="1" source="107-IEOnHse_30UmLulo-52" target="107-IEOnHse_30UmLulo-44" edge="1">
          <mxGeometry width="50" height="50" relative="1" as="geometry">
            <mxPoint x="740" y="-339" as="sourcePoint" />
            <mxPoint x="652.7" y="-311.7680000000005" as="targetPoint" />
          </mxGeometry>
        </mxCell>
        <mxCell id="107-IEOnHse_30UmLulo-67" value="" style="endArrow=classic;html=1;exitX=0.75;exitY=1;exitDx=0;exitDy=0;entryX=0.468;entryY=0.003;entryDx=0;entryDy=0;entryPerimeter=0;" parent="1" source="107-IEOnHse_30UmLulo-52" target="107-IEOnHse_30UmLulo-48" edge="1">
          <mxGeometry width="50" height="50" relative="1" as="geometry">
            <mxPoint x="505" y="-770" as="sourcePoint" />
            <mxPoint x="440" y="-729" as="targetPoint" />
          </mxGeometry>
        </mxCell>
        <mxCell id="107-IEOnHse_30UmLulo-68" value="" style="endArrow=classic;html=1;exitX=0.51;exitY=1.041;exitDx=0;exitDy=0;entryX=0.5;entryY=0;entryDx=0;entryDy=0;exitPerimeter=0;" parent="1" source="107-IEOnHse_30UmLulo-20" target="107-IEOnHse_30UmLulo-16" edge="1">
          <mxGeometry width="50" height="50" relative="1" as="geometry">
            <mxPoint x="515" y="-760" as="sourcePoint" />
            <mxPoint x="450" y="-719" as="targetPoint" />
          </mxGeometry>
        </mxCell>
        <mxCell id="107-IEOnHse_30UmLulo-69" value="" style="endArrow=classic;html=1;entryX=0.5;entryY=0;entryDx=0;entryDy=0;" parent="1" target="107-IEOnHse_30UmLulo-9" edge="1">
          <mxGeometry width="50" height="50" relative="1" as="geometry">
            <mxPoint x="578" y="-970" as="sourcePoint" />
            <mxPoint x="590" y="-1040" as="targetPoint" />
          </mxGeometry>
        </mxCell>
        <mxCell id="107-IEOnHse_30UmLulo-70" value="" style="endArrow=classic;html=1;exitX=0;exitY=0.5;exitDx=0;exitDy=0;entryX=1.014;entryY=0.923;entryDx=0;entryDy=0;entryPerimeter=0;" parent="1" source="107-IEOnHse_30UmLulo-15" target="107-IEOnHse_30UmLulo-10" edge="1">
          <mxGeometry width="50" height="50" relative="1" as="geometry">
            <mxPoint x="601.4000000000001" y="-1067.786" as="sourcePoint" />
            <mxPoint x="600" y="-1030" as="targetPoint" />
          </mxGeometry>
        </mxCell>
        <mxCell id="107-IEOnHse_30UmLulo-71" value="" style="endArrow=classic;html=1;exitX=0.425;exitY=1.008;exitDx=0;exitDy=0;exitPerimeter=0;" parent="1" source="107-IEOnHse_30UmLulo-33" edge="1">
          <mxGeometry width="50" height="50" relative="1" as="geometry">
            <mxPoint x="631.4000000000001" y="-1057.786" as="sourcePoint" />
            <mxPoint x="440" y="-520" as="targetPoint" />
          </mxGeometry>
        </mxCell>
        <mxCell id="107-IEOnHse_30UmLulo-72" value="" style="endArrow=classic;html=1;exitX=0.496;exitY=1.008;exitDx=0;exitDy=0;entryX=0.5;entryY=0;entryDx=0;entryDy=0;exitPerimeter=0;" parent="1" source="107-IEOnHse_30UmLulo-35" target="107-IEOnHse_30UmLulo-30" edge="1">
          <mxGeometry width="50" height="50" relative="1" as="geometry">
            <mxPoint x="489.5" y="-528.0880000000002" as="sourcePoint" />
            <mxPoint x="500" y="-509" as="targetPoint" />
          </mxGeometry>
        </mxCell>
        <mxCell id="107-IEOnHse_30UmLulo-73" value="" style="endArrow=classic;html=1;exitX=0.594;exitY=-0.011;exitDx=0;exitDy=0;exitPerimeter=0;" parent="1" source="107-IEOnHse_30UmLulo-21" target="107-IEOnHse_30UmLulo-27" edge="1">
          <mxGeometry width="50" height="50" relative="1" as="geometry">
            <mxPoint x="439.5" y="-518.0880000000002" as="sourcePoint" />
            <mxPoint x="450" y="-499" as="targetPoint" />
          </mxGeometry>
        </mxCell>
        <mxCell id="107-IEOnHse_30UmLulo-74" value="" style="endArrow=classic;html=1;exitX=0.5;exitY=0;exitDx=0;exitDy=0;entryX=0.576;entryY=1.016;entryDx=0;entryDy=0;entryPerimeter=0;" parent="1" source="107-IEOnHse_30UmLulo-24" target="107-IEOnHse_30UmLulo-27" edge="1">
          <mxGeometry width="50" height="50" relative="1" as="geometry">
            <mxPoint x="497.22" y="-41.54000000000042" as="sourcePoint" />
            <mxPoint x="522.4758426033538" y="-90" as="targetPoint" />
          </mxGeometry>
        </mxCell>
      </root>
    </mxGraphModel>
  </diagram>
</mxfile>
